#!OML:ASF G:\JayActor3\Patient Classification 1\Patient 1\Session 5\male.ASF
:FULLY-SPECIFIED
:DEGREES
395
root 11.2989 16.4682 -5.59552 681.975 91.0196 682.9
lowerback 2.1244 -1.56544 -2.04281
upperback 2.41997 -2.065 -0.965201
thorax 1.32756 -1.0403 0.173294
lowerneck -9.32359 0.883086 2.94795
upperneck 9.97236 0.704346 0.887754
head 4.52522 0.524857 -0.157846
rclavicle 8.44835e-015 -4.37326e-015
rhumerus -34.9794 -10.7698 -85.0726
rradius 24.4018
rwrist 8.14655
rhand -17.6475 -4.36342
rfingers 7.12502
rthumb 8.61053 -34.1678
lclavicle 8.44835e-015 -4.37326e-015
lhumerus -17.8744 -3.27193 86.0415
lradius 32.1402
lwrist 14.8932
lhand -18.832 13.4183
lfingers 7.12502
lthumb 7.4673 43.2665
rfemur -33.181 6.97026 20.3948
rtibia 25.5966
rfoot -19.6487 -15.4224
rtoes -3.17868
lfemur 24.3935 10.648 -21.5899
ltibia 2.8625e-014
lfoot -12.0648 0.137114
ltoes -12.6439
396
root 11.4765 16.4541 -5.58444 686.144 91.1112 687.129
lowerback 2.0805 -1.57513 -1.98169
upperback 2.41501 -2.07686 -0.949065
thorax 1.34557 -1.04577 0.154542
lowerneck -9.35537 0.892921 2.96567
upperneck 10.055 0.721379 0.814935
head 4.55636 0.530735 -0.181722
rclavicle -6.60959e-015 -6.75868e-015
rhumerus -35.0656 -11.139 -84.8277
rradius 24.0482
rwrist 8.50202
rhand -17.6002 -4.43218
rfingers 7.12502
rthumb 8.65616 -34.2347
lclavicle -6.60959e-015 -6.75868e-015
lhumerus -17.9227 -3.03822 86.1273
lradius 31.7368
lwrist 14.7087
lhand -18.8128 13.3576
lfingers 7.12502
lthumb 7.48587 43.2052
rfemur -32.9371 6.94541 20.4792
rtibia 25.4917
rfoot -19.5799 -15.4016
rtoes -3.12035
lfemur 25.1239 10.5567 -21.3173
ltibia -5.08889e-014
lfoot -11.7019 -0.204835
ltoes -13.5581
397
root 11.6569 16.4394 -5.57182 689.418 91.1904 690.45
lowerback 2.00558 -1.57985 -1.92592
upperback 2.40578 -2.08176 -0.92692
thorax 1.37685 -1.04806 0.143988
lowerneck -9.39976 0.904217 2.98325
upperneck 10.1537 0.740951 0.732728
head 4.59465 0.53748 -0.208222
rclavicle 4.67144e-015 -7.95139e-016
rhumerus -35.1588 -11.501 -84.5737
rradius 23.6911
rwrist 8.86672
rhand -17.547 -4.4942
rfingers 7.12502
rthumb 8.70751 -34.2946
lclavicle 4.67144e-015 -7.95139e-016
lhumerus -18.0052 -2.76794 86.2133
lradius 31.2932
lwrist 14.5185
lhand -18.7829 13.3007
lfingers 7.12502
lthumb 7.51468 43.1472
rfemur -32.6679 6.96664 20.5667
rtibia 25.5671
rfoot -19.4199 -15.4901
rtoes -2.96187
lfemur 25.8456 10.4748 -21.0288
ltibia 1.27222e-014
lfoot -11.2589 -0.552202
ltoes -14.5669
398
root 11.8404 16.4249 -5.55785 692.293 91.2555 693.363
lowerback 1.89866 -1.5785 -1.86634
upperback 2.38975 -2.07824 -0.902011
thorax 1.41889 -1.04625 0.133229
lowerneck -9.43943 0.916028 3.00862
upperneck 10.2628 0.761525 0.641432
head 4.63547 0.544576 -0.238734
rclavicle -2.39784e-014 5.96354e-015
rhumerus -35.2723 -11.8647 -84.312
rradius 23.3409
rwrist 9.2429
rhand -17.4804 -4.54805
rfingers 7.12502
rthumb 8.77178 -34.3458
lclavicle -2.39784e-014 5.96354e-015
lhumerus -18.1315 -2.47174 86.2948
lradius 30.8158
lwrist 14.3156
lhand -18.7385 13.2572
lfingers 7.12502
lthumb 7.55756 43.1021
rfemur -32.375 7.01212 20.6733
rtibia 25.8057
rfoot -19.1782 -15.6673
rtoes -2.67986
lfemur 26.5607 10.3992 -20.7192
ltibia -5.725e-014
lfoot -10.7279 -0.912752
ltoes -15.5825
399
root 12.0274 16.4114 -5.54271 695.101 91.3144 696.204
lowerback 1.76055 -1.57436 -1.80366
upperback 2.36904 -2.07074 -0.871767
thorax 1.47362 -1.0426 0.125329
lowerneck -9.46802 0.930223 3.03758
upperneck 10.3777 0.786576 0.540773
head 4.67637 0.553466 -0.272468
rclavicle -4.42296e-015 -4.37326e-015
rhumerus -35.4057 -12.2304 -84.0355
rradius 22.9954
rwrist 9.63701
rhand -17.4459 -4.54859
rfingers 7.12502
rthumb 8.80511 -34.3449
lclavicle -4.42296e-015 -4.37326e-015
lhumerus -18.3066 -2.15511 86.375
lradius 30.3177
lwrist 14.107
lhand -18.6856 13.2274
lfingers 7.12502
lthumb 7.60862 43.0706
rfemur -32.0608 7.03522 20.8212
rtibia 26.1941
rfoot -18.8288 -15.9626
rtoes -2.31593
lfemur 27.2722 10.3213 -20.389
ltibia 6.99722e-014
lfoot -10.0986 -1.27821
ltoes -16.5825
400
root 12.2178 16.4001 -5.52683 698.002 91.377 699.138
lowerback 1.59812 -1.57184 -1.73413
upperback 2.34436 -2.06529 -0.837938
thorax 1.53785 -1.03999 0.116621
lowerneck -9.49156 0.947387 3.06159
upperneck 10.5011 0.816533 0.442458
head 4.71915 0.564806 -0.30436
rclavicle 2.34566e-014 4.77083e-015
rhumerus -35.5562 -12.5892 -83.7523
rradius 22.6666
rwrist 10.0269
rhand -17.39 -4.57612
rfingers 7.12502
rthumb 8.85898 -34.3702
lclavicle 2.34566e-014 4.77083e-015
lhumerus -18.5327 -1.80984 86.4488
lradius 29.8061
lwrist 13.8812
lhand -18.6302 13.2075
lfingers 7.12502
lthumb 7.66213 43.0487
rfemur -31.7351 6.98929 21.0232
rtibia 26.7144
rfoot -18.3622 -16.4006
rtoes -1.85061
lfemur 27.9808 10.232 -20.0415
ltibia 4.77083e-014
lfoot -9.35771 -1.64419
ltoes -17.5507
401
root 12.4122 16.3923 -5.51064 701.011 91.4541 702.188
lowerback 1.4225 -1.57247 -1.65363
upperback 2.31547 -2.06421 -0.802275
thorax 1.60492 -1.03942 0.10336
lowerneck -9.50411 0.963862 3.07688
upperneck 10.6333 0.847192 0.34752
head 4.76281 0.57646 -0.333788
rclavicle -1.36913e-014 -1.19271e-015
rhumerus -35.7324 -12.943 -83.4585
rradius 22.3534
rwrist 10.411
rhand -17.3461 -4.60228
rfingers 7.12502
rthumb 8.90138 -34.3945
lclavicle -1.36913e-014 -1.19271e-015
lhumerus -18.8186 -1.44785 86.5188
lradius 29.2929
lwrist 13.6381
lhand -18.5737 13.2095
lfingers 7.12502
lthumb 7.71663 43.0487
rfemur -31.3997 6.84818 21.2778
rtibia 27.3458
rfoot -17.8102 -16.9614
rtoes -1.30489
lfemur 28.6917 10.1225 -19.6806
ltibia -4.45278e-014
lfoot -8.48977 -1.99553
ltoes -18.5298
402
root 12.6103 16.3892 -5.49439 704.359 91.5472 705.597
lowerback 1.25037 -1.57859 -1.55302
upperback 2.285 -2.071 -0.761232
thorax 1.668 -1.04245 0.0844823
lowerneck -9.50824 0.982832 3.08422
upperneck 10.7749 0.882764 0.255095
head 4.80802 0.59047 -0.360835
rclavicle 1.40143e-014 -5.56597e-015
rhumerus -35.9285 -13.2857 -83.1546
rradius 22.0514
rwrist 10.7872
rhand -17.3162 -4.62685
rfingers 7.12502
rthumb 8.93022 -34.4179
lclavicle 1.40143e-014 -5.56597e-015
lhumerus -19.1576 -1.0508 86.5817
lradius 28.7728
lwrist 13.3623
lhand -18.512 13.2104
lfingers 7.12502
lthumb 7.77619 43.0474
rfemur -31.0513 6.63433 21.574
rtibia 28.0554
rfoot -17.2202 -17.6055
rtoes -0.678049
lfemur 29.4111 9.9898 -19.2969
ltibia 3.81667e-014
lfoot -7.47556 -2.32225
ltoes -19.4329
403
root 12.8119 16.3907 -5.47846 707.61 91.6555 708.933
lowerback 1.09273 -1.58877 -1.43401
upperback 2.25002 -2.08399 -0.719305
thorax 1.71778 -1.04818 0.0567043
lowerneck -9.50524 1.00247 3.08491
upperneck 10.9312 0.920672 0.164734
head 4.85667 0.605681 -0.386008
rclavicle 6.16232e-015 1.0138e-014
rhumerus -36.1441 -13.6116 -82.8449
rradius 21.7507
rwrist 11.1457
rhand -17.2997 -4.65707
rfingers 7.12502
rthumb 8.94612 -34.4474
lclavicle 6.16232e-015 1.0138e-014
lhumerus -19.5562 -0.619677 86.6339
lradius 28.2524
lwrist 13.0637
lhand -18.4315 13.2022
lfingers 7.12502
lthumb 7.85385 43.0364
rfemur -30.6899 6.37202 21.8809
rtibia 28.8062
rfoot -16.6099 -18.2262
rtoes -0.0390562
lfemur 30.1376 9.84062 -18.9027
ltibia -5.08889e-014
lfoot -6.29705 -2.59589
ltoes -20.2646
